<?xml version="1.0" encoding="UTF-8"?>
<svg id="Layer_1" xmlns="http://www.w3.org/2000/svg" version="1.1" viewBox="0 0 528.2153 80.0124">
  <!-- Generator: Adobe Illustrator 29.3.0, SVG Export Plug-In . SVG Version: 2.1.0 Build 146)  -->
  <path d="M157.5829,26.1964c-5.7752,0-10.7692,1.721-14.5068,5.0048V12.9356c0-2.3228-2.038-4.2868-4.4556-4.2868s-4.4452,1.9638-4.4452,4.2868v54.2081c0,2.3968,1.9532,4.2868,4.4452,4.2868s4.4556-1.8796,4.4556-4.2868v-.718c3.7376,3.2732,8.7316,5.0048,14.5068,5.0048,13.5568,0,22.658-9.0696,22.658-22.5736s-9.1116-22.658-22.658-22.658v-.0024ZM171.1821,48.8544c0,9.344-5.1736,14.9292-13.842,14.9292s-14.676-5.8596-14.676-14.9292,5.6276-15.014,14.676-15.014,13.842,5.332,13.842,15.014Z"/>
  <path d="M226.4949,26.1856c-2.418,0-4.4556,1.9638-4.4556,4.2868v.7391c-3.8012-3.2836-8.7952-5.0152-14.5072-5.0152-13.5464,0-22.658,9.1012-22.658,22.658s9.1012,22.5736,22.658,22.5736c5.712,0,10.706-1.7312,14.5072-5.0256v.7392c0,2.3968,1.9532,4.2864,4.4556,4.2864s4.4448-1.8792,4.4448-4.2864V30.4727c0-2.3228-2.0376-4.2868-4.4448-4.2868v-.0003ZM222.4617,48.8436c0,9.2068-5.6276,14.9296-14.676,14.9296s-13.8316-5.3004-13.8316-14.9296,5.0468-15.0136,13.8316-15.0136,14.676,5.8916,14.676,15.0136Z"/>
  <path d="M262.615,26.1864c-5.2476,0-10.0092,1.6365-13.5148,4.614v-.3273c0-2.3228-2.0376-4.2868-4.4448-4.2868s-4.4556,1.9638-4.4556,4.2868v36.6688c0,2.3968,1.9532,4.2864,4.4556,4.2864s4.4448-1.8792,4.4448-4.2864v-21.7184c0-7.5176,4.3184-11.836,11.836-11.836s11.2552,3.8116,11.2552,12.0048v21.5496c0,2.3968,1.9532,4.2864,4.4556,4.2864s4.4556-1.8792,4.4556-4.2864v-22.8904c0-5.6804-1.7952-10.3472-5.2052-13.4936-3.2308-2.9986-7.824-4.5824-13.2824-4.5824v.0109Z"/>
  <path d="M327.7471,30.23c0-1.911-1.7208-4.0332-4.1916-4.0332-.834,0-1.742.3168-2.3544.8236l-23.186,18.5612V12.8511c0-2.3228-2.0376-4.2868-4.4556-4.2868s-4.4556,1.9638-4.4556,4.2868v54.2921c0,2.3968,1.9532,4.2868,4.4556,4.2868s4.4556-1.8792,4.4556-4.2868v-11.276l8.0876-6.43,13.5252,20.0924c.7708,1.1508,2.1432,1.9004,3.5052,1.9004,2.4604,0,4.614-2.1116,4.614-4.5296,0-.876-.232-1.6576-.7072-2.312l-14.1692-20.5992,13.356-10.6216c.94-.7496,1.5204-1.9533,1.5204-3.1464v.0106-.0018Z"/>
  <path d="M393.4111,26.196c-1.8476,0-3.3468,1.0453-3.9172,2.724l-9.9564,29.5528-10.0304-29.3944c-.496-1.3831-2.3228-2.8824-4.4132-2.8824s-3.822,1.4887-4.3288,2.8824l-10.1148,29.3944-9.9564-29.5632c-.5596-1.6788-2.0588-2.724-3.9172-2.724-2.798,0-4.5296,2.3122-4.5296,4.4556,0,.6124.19,1.457.3696,1.911l13.6096,35.9085c.4856,1.362,1.9428,2.9564,4.4028,2.9564,2.0696,0,3.8748-1.1932,4.498-2.9668l9.9564-28.5496,10.1148,28.5496c.644,1.8056,2.3648,2.9668,4.4028,2.9668,2.4704,0,3.9172-1.5944,4.4132-2.9564l13.5252-35.8876c.19-.4646.38-1.2881.38-1.9216,0-2.1434-1.7316-4.4556-4.5296-4.4556h.0212v.0002Z"/>
  <path d="M439.6792,32.2048c-4.14-3.8749-9.736-6.0076-15.744-6.0076s-12.12,2.3017-16.3,6.3244c-4.32,4.16-6.696,9.9672-6.696,16.3444,0,6.736,2.304,12.4588,6.644,16.5552,4.128,3.8856,9.964,6.0288,16.428,6.0288,7.472,0,13.46-1.7632,17.8-5.2368.876-.6864,1.436-1.8796,1.436-3.0512,0-2.2176-1.7-3.9488-3.864-3.9488-1.004,0-1.752.1688-2.86,1.0768-2.98,2.4916-7.18,3.7588-12.504,3.7588-3.576,0-6.968-1.2672-9.564-3.5792-2.64-2.344-4.18-5.5328-4.488-9.2388h30.7561c3.156,0,5.12-2.122,5.12-5.5324,0-4.8992-2.228-9.8088-6.144-13.4828l-.02-.0106v-.0002ZM410.0112,44.4844c1-6.24,6.828-10.8964,13.744-10.8964s12.576,4.4556,13.728,10.8964c0,0-27.4721,0-27.472,0Z"/>
  <path d="M471.9193,44.41l-.064.3908.02-.4016c-5.564-.9712-11.316-1.974-11.316-5.902,0-3.2836,3.492-5.1632,9.576-5.1632,4.136,0,7.664,1.3515,10.22,3.9066l.136.1267c.96.8869,2.06,1.8899,3.916,1.8899,2.04,0,3.696-1.6999,3.696-3.7798,0-1.0453-.444-2.0378-1.36-3.0725-4.416-4.5928-11.74-6.2292-17.128-6.2292-10.252,0-17.98,5.4268-17.98,12.6384,0,8.7212,7.456,10.8012,17.2,12.6172.392.074.792.1372,1.224.2112l.316.0528c4.712.76,11.172,1.8056,11.172,6.4088,0,3.8644-3.812,5.9128-11.012,5.9128-5.08,0-9.364-2.0484-12.744-6.1028-.644-.792-1.72-1.8372-3.632-1.8372-2.092,0-3.864,1.8476-3.864,4.0228,0,3.1884,5.32,7.0108,5.552,7.1692,3.716,2.5864,8.892,4.1388,13.844,4.1388,5.576,0,10.62-1.2036,14.212-3.3788,3.948-2.4072,6.04-5.8704,6.04-10.0092,0-9.8508-9.304-12.2052-18.024-13.6308v.0212h0Z"/>
  <path d="M524.3593,61.61c-1.032,0-1.868.3272-2.764.6652-1.216.4648-2.576,1.0032-5.004,1.0032-4.552,0-6.58-2.0588-6.58-6.6624v-22.4468h12.004c2.06,0,3.94-1.7632,3.94-3.7059,0-2.0589-1.848-3.8644-3.94-3.8644h-12.004v-9.9144c0-2.4601-2.068-4.5296-4.528-4.5296s-4.456,2.0272-4.456,4.5296v9.9144h-4.996c-2.016,0-3.78,1.7632-3.78,3.7799s1.764,3.7798,3.78,3.7798h4.996v22.5316c0,9.6292,5.12,14.718,14.8,14.718,3,0,5.976-.4856,8.164-1.33,3.496-1.3516,4.224-3.2628,4.224-4.6248,0-2.122-1.732-3.8536-3.876-3.8536l.02.0104v-.0002Z"/>
  <path d="M91.4148.0965c-8.1828.5068-14.7288,7.0528-15.246,15.2252-.0212.2745-.032.5385-.032.8024-.0632,4.7088,2.0592,9.1964,5.8388,12.3108l3.6744,3.0408-12.258,10.8012-.1796-.1584-11.878-10.5056,3.8644-3.4103c3.2308-2.8508,5.2156-6.8524,5.448-10.9596.0208-.3062.0316-.6018.0316-.8975,0-4.4768-1.8688-8.816-5.1312-11.8888C62.2315,1.3525,57.8923-.2101,53.3627.0751c-8.172.4962-14.7288,7.0424-15.246,15.2252-.0317.5279-.0422,1.098-.0211,1.7421.1795,4.1916,2.1645,8.2568,5.4376,11.1496l3.864,3.4209-12.0784,10.6428-.1795-.1584-12.0576-10.6636,3.8855-3.2414c3.5476-2.9458,5.596-7.2536,5.6168-11.7936v-.0739c0-4.4768-1.8688-8.816-5.1312-11.8888C24.148,1.3107,19.8296-.2521,15.2792.0331,7.1071.5294.5503,7.0756.0331,15.2584c-.0211.2745-.0317.5385-.0317.8024-.0633,4.5508,1.9427,8.9744,5.5008,12.1316l22.8376,20.198-3.8749,3.4104c-3.2731,2.8824-5.258,6.926-5.448,11.1072-.0317.6124-.0317,1.2036,0,1.7632.4857,8.1828,7.032,14.75,15.2252,15.2672,4.5824.2428,8.9112-1.3092,12.1948-4.3816,3.2628-3.0724,5.142-7.4012,5.142-11.8676,0-.2956,0-.6124-.0212-.8972-.2216-4.0968-2.196-8.0876-5.4268-10.9492l-3.8748-3.4312,12.0784-10.6428.1796.1584,11.878,10.5056-3.8748,3.41c-3.2732,2.8932-5.2684,6.9368-5.448,11.1076-.0316.5804-.0316,1.172,0,1.7632.4856,8.1824,7.0316,14.75,15.2248,15.2672.3592.0212.7076.0316,1.056.0316,4.16,0,8.1088-1.5732,11.1388-4.4132,3.2628-3.062,5.142-7.3908,5.1524-11.878,0-.2956,0-.5916-.0316-.8872-.2216-4.1176-2.2064-8.1084-5.4268-10.9592l-3.8748-3.4316,22.922-20.198c3.2308-2.8402,5.2156-6.8312,5.448-10.9488.0212-.3062.0316-.6124.0316-.908,0-4.4768-1.8688-8.816-5.1312-11.8888C100.3371,1.427,96.0083-.1249,91.4155.0967l-.0007-.0002ZM21.0667,21.1181l-4.9836,4.1496-4.4768-3.9594c-1.5415-1.362-2.4178-3.2203-2.3967-5.0892v-.3379c.2217-3.4948,3.1252-6.3984,6.6096-6.6096h.454c1.8055,0,3.537.6863,4.8568,1.9216,1.436,1.362,2.2278,3.2097,2.2278,5.216,0,1.7949-.8446,3.5159-2.3017,4.73l.0106-.0211h0ZM42.3627,63.2781v.4012c0,1.964-.792,3.7904-2.2384,5.1628-1.3304,1.246-3.0303,1.922-4.836,1.922-.1584,0-.3167,0-.4751-.0108-3.4948-.2216-6.3876-3.1252-6.5988-6.62,0-.264-.0211-.528,0-.792.0739-1.6892.9292-3.3784,2.3334-4.614l4.73-4.1704,4.7408,4.1916c1.3936,1.2356,2.2384,2.8932,2.3228,4.5296h.0213ZM59.0763,21.2781l-4.7196,4.1812-4.73-4.1916c-1.4148-1.2459-2.27-2.9352-2.3336-4.6352v-.7496c.222-3.4948,3.1148-6.3984,6.6096-6.6096h.454c1.8056,0,3.5264.6863,4.8464,1.9216,1.436,1.362,2.2276,3.1886,2.2276,5.1524v.3907c-.0948,1.6682-.95,3.3258-2.344,4.5504l-.0104-.0106v.0003ZM80.4252,63.3102v.4012c0,1.9744-.792,3.8012-2.2384,5.1632-1.3196,1.2456-3.0408,1.9108-4.8884,1.9108-.1372,0-.2744,0-.4224-.0104-3.4948-.2216-6.3876-3.1252-6.5988-6.62-.0212-.264-.0212-.528,0-.792.0844-1.6788.95-3.3576,2.344-4.6032l4.73-4.1708,4.7408,4.1916c1.3828,1.2248,2.2276,2.8824,2.3228,4.5296,0,0,.0104,0,.0104,0ZM99.4936,16.7581c-.0952,1.6682-.9504,3.3258-2.3336,4.5504l-4.5188,3.9805-4.7936-3.9594c-1.5836-1.3092-2.5232-3.2097-2.4916-5.068v-.3379c.2216-3.5054,3.1252-6.4088,6.6096-6.6096.1476,0,.306-.0211.454-.0211,1.8052,0,3.5264.6863,4.8568,1.9216,1.4356,1.362,2.2276,3.1886,2.2276,5.1632v.3801h-.0104v.0002Z"/>
</svg>