<?xml version="1.0" encoding="utf-8"?>
<!-- Generator: Adobe Illustrator 27.9.0, SVG Export Plug-In . SVG Version: 6.00 Build 0)  -->
<svg version="1.1" id="artwork" xmlns="http://www.w3.org/2000/svg" xmlns:xlink="http://www.w3.org/1999/xlink" x="0px" y="0px"
	 viewBox="0 0 1274.177 861.04" style="enable-background:new 0 0 1274.177 861.04;" xml:space="preserve">
<style type="text/css">
	.st0{fill:#283233;}
	.st1{fill:url(#SVGID_1_);}
	.st2{fill:url(#SVGID_00000007415761441798221960000000328225956636182201_);}
</style>
<g>
	<g>
		<g>
			<path class="st0" d="M1052.759,830.035c0,18.301-12.139,29.07-33.615,29.07h-42.018V757.328h43.45
				c18.239,0,29.444,10.333,29.444,26.269c0,11.267-5.167,18.737-13.57,22.534c10.271,3.299,16.372,12.637,16.372,23.904
				 M992.066,770.96v29.568h25.709c11.205,0,17.305-4.668,17.305-14.566c0-9.898-6.1-15.003-17.305-15.003L992.066,770.96
				L992.066,770.96z M1019.643,845.535c11.703,0,18.239-5.167,18.239-15.936s-6.536-15.5-18.239-15.5h-27.577v31.436H1019.643z"/>
			<path class="st0" d="M1129.821,847.905v11.267c-2.801,0.498-4.669,0.934-7.034,0.934c-7.47,0-12.637-3.299-14.504-9.835
				c-4.669,6.536-13.57,10.769-23.344,10.769c-16.372,0-25.211-10.769-25.211-23.904c0-14.068,10.769-22.036,24.775-22.534
				l22.908-0.934v-3.299c0-9.4-5.167-14.566-14.94-14.566s-14.006,4.233-15.874,10.333h-15.874
				c3.299-14.566,14.94-22.534,32.245-22.534c18.239,0,28.51,9.835,28.51,25.771v31.872c0,4.669,2.365,6.536,5.602,6.536h2.801
				L1129.821,847.905z M1107.411,832.903v-7.968l-20.542,0.934c-7.968,0.498-12.637,3.735-12.637,10.333
				c0,7.968,5.167,12.637,14.504,12.637C1099.008,848.839,1107.411,843.237,1107.411,832.903z"/>
			<path class="st0" d="M1200.349,810.865v48.306h-14.94V814.6c0-13.135-6.1-17.803-14.94-17.803c-8.839,0-18.239,6.1-18.239,21.102
				v41.271h-14.94v-73.64h14.94v11.702c5.167-9.4,13.57-13.57,23.344-13.57C1188.646,783.662,1200.349,792.563,1200.349,810.865z"/>
			<path class="st0" d="M1274.177,785.531l-31.312,35.607l31.312,38.034h-19.173l-28.51-36.167v36.167h-14.94V757.394h14.94v62.81
				l29.444-34.673H1274.177z"/>
		</g>
	</g>
	<g>
		<g>
			<path class="st0" d="M0,808.499c0-34.673,19.173-52.539,44.384-52.539c18.675,0,35.047,10.333,37.848,30.502H66.358
				c-1.868-12.637-11.703-16.87-21.476-16.87c-16.807,0-28.946,11.267-28.946,38.906s12.139,38.47,28.946,38.47
				c9.835,0,19.609-4.233,21.476-16.434h15.874c-2.801,20.169-19.173,30.004-37.848,30.004C19.172,860.539,0,842.736,0,808.499z"/>
			<path class="st0" d="M88.766,822.065c0-23.468,14.504-38.47,34.549-38.47s34.549,15.002,34.549,38.47
				s-14.504,38.906-34.549,38.906S88.766,845.969,88.766,822.065z M142.487,822.065c0-17.803-7.968-26.269-19.173-26.269
				s-19.609,8.466-19.609,26.269s7.968,26.705,19.609,26.705S142.487,839.869,142.487,822.065z"/>
			<path class="st0" d="M272.842,810.801v48.306h-14.94v-45.94c0-11.703-5.167-16.434-13.57-16.434
				c-9.337,0-16.807,7.968-16.807,20.605v41.707h-14.94v-45.94c0-11.703-5.602-16.434-13.57-16.434
				c-9.337,0-17.305,7.968-17.305,20.605v41.707h-14.94v-73.641h14.94v11.267c4.669-8.902,13.072-13.135,21.974-13.135
				c9.337,0,17.741,4.669,21.476,14.566c4.669-9.835,13.57-14.566,23.344-14.566c13.57,0,24.277,8.902,24.277,27.203"/>
			<path class="st0" d="M390.556,810.801v48.306h-14.94v-45.94c0-11.703-5.167-16.434-13.57-16.434
				c-9.337,0-16.807,7.968-16.807,20.605v41.707h-14.94v-45.94c0-11.703-5.602-16.434-13.57-16.434
				c-9.337,0-17.305,7.968-17.305,20.605v41.707h-14.94v-73.641h14.94v11.267c4.669-8.902,13.072-13.135,21.974-13.135
				c9.337,0,17.741,4.669,21.476,14.566c4.669-9.835,13.57-14.566,23.344-14.566c13.57,0,24.277,8.902,24.277,27.203"/>
			<path class="st0" d="M400.385,822.065c0-23.468,14.504-38.47,34.113-38.47s34.549,15.002,34.549,38.47
				s-14.504,38.906-34.549,38.906C414.454,860.971,400.385,845.969,400.385,822.065z M454.107,822.065
				c0-17.803-7.968-26.269-19.609-26.269c-11.641,0-19.173,8.466-19.173,26.269s7.968,26.705,19.173,26.705
				C445.703,848.77,454.107,839.869,454.107,822.065z"/>
			<path class="st0" d="M541.443,810.798v48.306h-14.94v-44.571c0-13.135-6.1-17.803-14.504-17.803
				c-9.337,0-18.239,6.1-18.239,21.103v41.271h-14.94v-73.641h14.94v11.703c4.669-9.4,13.57-13.57,22.908-13.57
				C530.238,783.595,541.443,792.497,541.443,810.798z"/>
			<path class="st0" d="M633.946,785.462h14.442l-18.177,73.641h-18.239l-14.006-55.776l-14.006,55.776h-18.675l-18.239-73.641
				h14.94l14.006,60.07l14.504-60.07h15.376l14.504,58.639L633.946,785.462z"/>
			<path class="st0" d="M717.055,826.303h-51.356c1.432,14.566,8.902,22.534,21.476,22.534c7.47,0,13.57-2.801,15.438-8.902h14.504
				c-4.233,13.57-15.874,21.103-31.312,21.103c-20.542,0-34.549-15.002-34.549-38.906s14.006-38.47,35.047-38.47
				c18.675,0,31.312,12.201,31.312,35.171c0,2.366,0,4.669-0.498,7.532 M666.197,814.663h36.914
				c-0.498-14.068-8.404-18.737-17.305-18.737C675.535,795.926,668.065,802.026,666.197,814.663z"/>
			<path class="st0" d="M794.612,847.839v11.267c-2.366,0.934-4.233,0.934-6.536,0.934c-7.47,0-13.072-3.299-14.94-9.835
				c-4.233,6.536-13.072,10.769-22.908,10.769c-16.372,0-25.709-10.769-25.709-23.904c0-14.068,11.205-21.601,25.211-22.534
				l22.908-0.498v-3.735c0-9.4-5.167-14.566-14.94-14.566s-14.504,4.233-15.874,10.769H725.95
				c2.801-15.002,14.504-22.97,32.245-22.97s28.51,9.835,28.51,25.771v32.37c0,4.233,2.365,6.1,5.602,6.1h2.365L794.612,847.839z
				 M772.638,832.836v-7.968l-20.542,0.934c-8.404,0.498-12.637,3.735-12.637,10.333c0,7.968,4.669,12.637,14.504,12.637
				C763.798,848.772,772.638,843.17,772.638,832.836z"/>
			<path class="st0" d="M803.52,757.328h14.94v101.778h-14.94V757.328z"/>
			<path class="st0" d="M838.996,840.372v-42.205h-12.637V785.53h12.637v-16.87l14.504-9.399v26.269h16.372v12.637H853.5v37.972
				c0,7.532,3.299,10.333,8.902,10.333c2.365,0,5.167,0.001,8.404-0.933v12.637c-4.233,1.432-8.404,1.867-12.139,1.867
				c-11.703,0-19.609-7.034-19.609-19.671"/>
			<path class="st0" d="M880.08,859.106V757.328h14.94v39.84c5.167-9.4,15.874-13.57,25.709-13.57
				c13.072,0,24.775,8.902,24.775,27.203v48.306h-14.94v-44.571c0-13.135-8.902-17.803-17.305-17.803
				c-8.902,0-18.239,6.1-18.239,21.103v41.271h-14.94V859.106z"/>
		</g>
	</g>
</g>
<g>
	
		<linearGradient id="SVGID_1_" gradientUnits="userSpaceOnUse" x1="449.2727" y1="273.7836" x2="824.9051" y2="-41.3434" gradientTransform="matrix(1 0 0 -1 0 436.22)">
		<stop  offset="0" style="stop-color:#FFFF00"/>
		<stop  offset="0.27" style="stop-color:#FEF10C"/>
		<stop  offset="0.45" style="stop-color:#FDE516"/>
		<stop  offset="0.64" style="stop-color:#FDE113"/>
		<stop  offset="0.82" style="stop-color:#FED508"/>
		<stop  offset="0.92" style="stop-color:#FFCC00"/>
	</linearGradient>
	<polyline class="st1" points="637.089,0 957.088,320.001 637.089,640 317.088,320.001 637.089,0 	"/>
	
		<linearGradient id="SVGID_00000103251092017540268150000010998266557921546410_" gradientUnits="userSpaceOnUse" x1="706.3458" y1="28.5515" x2="823.0458" y2="-44.4487" gradientTransform="matrix(1 0 0 -1 0 436.22)">
		<stop  offset="0.1" style="stop-color:#874400"/>
		<stop  offset="0.26" style="stop-color:#D88A00"/>
		<stop  offset="0.37" style="stop-color:#E79D00"/>
		<stop  offset="0.52" style="stop-color:#F2B400"/>
		<stop  offset="0.7" style="stop-color:#FAD202"/>
		<stop  offset="0.9" style="stop-color:#FEDF03"/>
	</linearGradient>
	<polygon style="fill:url(#SVGID_00000103251092017540268150000010998266557921546410_);" points="758.588,352.4 637.089,640 
		637.089,640 957.088,320.001 873.939,236.85 	"/>
</g>
</svg>
